<svg viewBox="0 0 32 32"><path d="M21.688 14.875c0-2.25-.75-4.125-2.313-5.688s-3.438-2.313-5.688-2.313c-2.188 0-4.063.75-5.625 2.313s-2.375 3.438-2.375 5.688c0 2.188.813 4.063 2.375 5.625s3.438 2.375 5.625 2.375c2.25 0 4.125-.813 5.688-2.375s2.313-3.438 2.313-5.625zm9.187 14.813c0 .625-.25 1.188-.688 1.625s-1 .688-1.625.688-1.188-.25-1.625-.687l-6.125-6.125c-2.125 1.5-4.5 2.25-7.125 2.25-1.688 0-3.313-.313-4.875-1s-2.875-1.563-4-2.688c-1.125-1.125-2-2.438-2.688-4-.625-1.563-1-3.188-1-4.875 0-1.75.375-3.375 1-4.875.688-1.563 1.563-2.938 2.688-4.063s2.438-2 4-2.688c1.563-.626 3.188-.94 4.875-.94 1.75 0 3.375.314 4.938.94 1.5.687 2.875 1.562 4 2.687s2 2.5 2.688 4.063c.625 1.5 1 3.125 1 4.875 0 2.625-.75 5-2.25 7.125l6.125 6.125c.438.438.688.938.688 1.563z"></path></svg>
